<?xml version="1.0" encoding="UTF-8" standalone="no"?><!DOCTYPE svg PUBLIC "-//W3C//DTD SVG 1.1//EN" "http://www.w3.org/Graphics/SVG/1.1/DTD/svg11.dtd"><svg width="100%" height="100%" viewBox="0 0 65 57" version="1.1" xmlns="http://www.w3.org/2000/svg" xmlns:xlink="http://www.w3.org/1999/xlink" xml:space="preserve" style="fill-rule:evenodd;clip-rule:evenodd;stroke-linejoin:round;stroke-miterlimit:1.41421;"><g><path d="M56.603,8.13c0,-0.23 -0.187,-0.416 -0.416,-0.416l-48.065,0c-0.23,0 -0.416,0.186 -0.416,0.416l0,7.495c0,0.23 0.186,0.417 0.416,0.417l48.065,0c0.229,0 0.416,-0.187 0.416,-0.417l0,-7.495Z" style="fill:#5c5853;"/><path d="M56.603,24.145c0,-0.229 -0.187,-0.416 -0.416,-0.416l-48.065,0c-0.23,0 -0.416,0.187 -0.416,0.416l0,7.496c0,0.229 0.186,0.416 0.416,0.416l48.065,0c0.229,0 0.416,-0.187 0.416,-0.416l0,-7.496Z" style="fill:#5c5853;"/><path d="M56.603,40.161c0,-0.23 -0.187,-0.417 -0.416,-0.417l-48.065,0c-0.23,0 -0.416,0.187 -0.416,0.417l0,7.495c0,0.229 0.186,0.416 0.416,0.416l48.065,0c0.229,0 0.416,-0.187 0.416,-0.416l0,-7.495Z" style="fill:#5c5853;"/></g></svg>